<svg xmlns="http://www.w3.org/2000/svg" width="512" height="512" viewBox="0 0 135.467 135.467" id="magic-book">
  <path fill="#fff" d="M122.677 70.416s3.184 5.197 2.434 7.772c-.749 2.575-.655 2.668.469 3.886 1.123 1.217-.328 1.966.14 2.996s.702 1.685.047 2.575c-.656.89-52.032 23.863-57.925 24.724-5.892.86-5.362.066-4.7-4.304.662-4.37-.133-13.639 8.74-17.016 8.871-3.376 50.795-20.633 50.795-20.633z"></path>
  <path fill="#7738c7" d="M11.511 35.61s58.75-14.858 63.107-13.143c4.357 1.715 51.59 46.1 53.18 49.129 1.59 3.028-56.361 21.848-58.557 24.231-2.196 2.384-4.791 13.468-4.606 15.487.186 2.019 60.653-24.736 61.58-23.787.928.948 1.29 4.32-3.615 6.36-4.906 2.042-54.163 21.924-59.17 22.289-5.006.365-55.822-59.607-56.653-62.373-.832-2.765 1.854-16.395 4.734-18.193z"></path>
  <path fill="#171d8f" d="M62.873 31.644c-.786.012-2.55.389-4.772.951-.725 1.745-2.29 4.734-1.061 5.143 1.404.469.749 2.528 1.872 2.996 1.124.469 1.218-.374 2.622 1.592 1.405 1.967 2.341.75 3.746 2.622 1.404 1.873 2.528 2.34 5.243.468 2.716-1.873 5.243-.936 6.086-.749.843.187 4.308-.281 4.963-2.06.52-1.413.63-3.297 1.544-4.623-3.617-4.522-3.157-2.53-8.586-.762-5.694 1.854-9.137-5.165-11.388-5.562a1.464 1.464 0 0 0-.269-.016zM38.644 38.28s-8.474 1.986-4.37 6.488c.483.53 1.41 1.56 2.568 2.845 3.473.635 7.061 1.831 9.15 2.484 2.995.936 5.055-2.903 6.46-.468 1.404 2.434 2.528.468 4.869 1.872 2.34 1.405 2.247 1.499 4.588 1.218 2.34-.281 2.809 2.153 4.869 1.123 2.06-1.03.374-3.558.374-3.558s-5.712-7.023-7.678-6.46c-1.966.56-2.434-.375-3.745-1.218-1.31-.843-2.341-1.31-3.465-1.123-1.123.187-2.434 0-4.213-1.124s-2.902 1.124-5.15.094c-2.247-1.03-4.257-2.173-4.257-2.173zm50.775 9.563c-1.977.048.41 3.518-1.948 2.066-2.435-1.498-4.588-2.34-5.43-1.217-.844 1.124-1.686-.187-4.027-.749s-3.933 3.09-3.558 3.465c.375.374 5.805.093 6.648 1.591.842 1.498 2.902 5.712 4.869 6.087 1.966.374 5.711-1.873 6.367 0 .655 1.872-.937 4.026 1.872 3.745 2.81-.281 2.248-3.839 3.746-.749 1.498 3.09 2.34 2.247 4.775 1.966.744-.085 1.365-.162 1.864-.16.654-1.427 1.086-2.751.256-3.891-.688-.947-2.777-3.005-5.349-5.47-.262.566-.9.569-2.108-.872-2.902-3.465-5.431-5.618-7.772-5.806a1.936 1.936 0 0 0-.205-.006zm-21.705 8.808s-4.307 1.311-9.457 1.124c-5.15-.188-6.273-2.247-8.989.187a24.7 24.7 0 0 1-1.761 1.466c3.45 3.803 7.154 7.856 10.664 11.644.594-.143 1.073-.45 1.397-1.125 1.123-2.34-2.81-3.277 1.31-3.652 4.12-.374 6.274.094 6.461-1.872.188-1.967-1.497-2.247-.187-3.933 1.311-1.685.562-3.839.562-3.839zm5.91 1.317c-.98-.012-2.352.749-2.352 2.616 0 2.715.375 3.839-.842 4.775-1.218.937-1.405 5.712-2.248 7.584-.778 1.73-3.313 2.582-4.064 4.474 4.552 4.786 8.03 8.233 8.828 8.473 2.237.67 11.057-2.773 17.366-5.448-.103-.466.19-1.317.904-2.723 3.09-6.086-5.243-2.528-6.367-4.963-1.124-2.434 1.334-4.696-.749-5.899-2.083-1.202-1.873-.094-2.622-2.715-.749-2.622-.749-3.37-1.498-4.026-.749-.656-5.056-.75-5.43-1.686-.118-.292-.482-.457-.927-.462z"></path>
  <path fill="#5230ab" d="M10.994 36.06C8.32 39.013 5.995 51.205 6.777 53.805c.831 2.766 51.647 62.737 56.653 62.372 5.007-.365 54.264-20.247 59.17-22.288 4.905-2.04 4.543-5.413 3.616-6.361-.927-.949-61.395 25.806-61.58 23.787-.186-2.02 2.408-13.104 4.605-15.487.097-.105.308-.243.612-.41-8.507-3.013-16.98-9.353-30.042-24.813-12.446-14.731-24.97-29.881-28.817-34.543Z"></path>
  <path fill="#ffc517" d="m24.175 75.379-5.15-6.274s2.153-13.015 4.588-15.168c2.434-2.154 13.853-4.953 15.637-5.431 10.652-2.854-16.718-15.572-23.315-3.277-2.06 3.839-6.086 14.794-6.274 17.416-.187 2.621 5.15 9.831 8.334 12.64 3.183 2.81 6.18.094 6.18.094zm29.958 33.123-5.614-5.876s2.154-13.015 4.588-15.168c2.435-2.154 13.853-4.953 15.637-5.431 10.652-2.854-16.717-15.572-23.315-3.277-2.06 3.839-6.086 14.794-6.273 17.415-.187 2.622 5.15 9.832 8.333 12.641 3.184 2.809 6.644-.304 6.644-.304z"></path>
  <path fill="#ffac17" d="M17.145 43.493a9.127 9.127 0 0 0-1.21 1.736c-2.06 3.839-6.087 14.794-6.274 17.416-.187 2.622 5.15 9.831 8.334 12.64 3.183 2.809 6.18.094 6.18.094l-5.15-6.274s2.153-13.015 4.588-15.168c.332-.295.838-.601 1.459-.912-2.981-3.576-5.64-6.774-7.927-9.532zm28.937 34.213a9.318 9.318 0 0 0-.653 1.044c-2.06 3.839-6.086 14.794-6.273 17.416-.188 2.621 5.15 9.83 8.333 12.64 3.184 2.809 6.643-.304 6.643-.304l-5.613-5.876s2.154-13.015 4.588-15.168c.4-.354 1.047-.726 1.85-1.102-2.733-2.343-5.66-5.187-8.875-8.65z"></path>
  <path fill="#ffc517" d="M115.976 58.011s-4.568.199-3.575 3.244c.993 3.046 8.342 7.747 6.555 9.336-1.788 1.589-10.726 5.098-10.991 6.952-.265 1.854-.463 4.568 3.443 3.575 3.906-.993 16.95-6.157 17.413-8.74.463-2.582-6.356-9.269-8.607-11.785-2.251-2.516-2.45-2.78-4.238-2.582zm-56.923-34.74c-.234 1.452 2.06 3.138 4.822 2.482 2.762-.655 8.849-2.95 10.768-1.03 1.92 1.92 6.367 6.227 7.912 6.508 1.545.28 4.214-.14 3.324-2.388-.89-2.247-8.427-9.738-11.985-9.55-3.558.187-15.169 2.387-14.841 3.979z"></path>
  <path fill="#fff" d="M80.361 49.27a13.928 9.508 35.103 0 1-3.41 13.505 13.928 9.508 35.103 0 1-17.544-8.18 13.928 9.508 35.103 0 1 3.41-13.505 13.928 9.508 35.103 0 1 17.544 8.18Z"></path>
  <path fill="#ff4b3d" d="M79.997 47.981a11.56 7.891 35.103 0 1-2.83 11.209 11.56 7.891 35.103 0 1-14.561-6.788 11.56 7.891 35.103 0 1 2.83-11.21 11.56 7.891 35.103 0 1 14.56 6.789Z"></path>
  <path fill="#cf1531" d="M63.243 53.3a11.56 7.891 35.103 0 0 13.924 5.89 11.56 7.891 35.103 0 0 4.432-7.507c-1.673 1.275-4.35 2.697-8.352 3.25-3.756.52-7.305-.459-10.004-1.633z"></path>
  <path fill="#fff" d="M74.44 43.964a3.342 2.282 35.103 0 1-.818 3.24 3.342 2.282 35.103 0 1-4.21-1.962 3.342 2.282 35.103 0 1 .818-3.24 3.342 2.282 35.103 0 1 4.21 1.962z"></path>
  <path fill="#ff4b3d" d="m97.262 94.801 12.363-4.387s2.26 12.296 6.048 12.894c3.788.599 11.564 2.46 12.561 3.19.997.732-8.374 1.928-9.105 2.593-.731.664.2 4.054.864 5.848.665 1.795-13.093-2.725-17.148-7.643-4.054-4.918-5.583-12.495-5.583-12.495z"></path>
  <path fill="#7738c7" d="M124.55 80.622S76.703 96.915 73.988 99.068c-2.716 2.154 48.408-15.543 48.408-15.543s-.374 1.779-2.715 2.715c-2.341.937-49.532 18.54-50.375 19.382-.843.843 54.307-18.445 54.963-19.85.655-1.404.28-5.15.28-5.15z"></path>
  <path fill="#cf1531" d="M111.81 98.26c-.916.826-2.296 2.19-4.379 4.45-1.806 1.961-3.693 2.984-5.425 3.48.267.38.546.75.84 1.106 1.806 2.192 5.54 4.303 9.065 5.813-.123-3.588.9-8.389 1.659-11.404-.664-.92-1.253-2.14-1.76-3.446z"></path>
</svg>
