<svg xmlns="http://www.w3.org/2000/svg" enable-background="new 0 0 68 68" viewBox="0 0 68 68" id="axes">
  <path d="M50.9235191,44.2531929c18.2278786-9.4562645,14.8946495-20.3507996,14.7454872-20.8069515c-0.1314926-0.4034691-0.5350647-0.6493206-0.947319-0.5966377c-4.070137,0.5263939-10.2543144-1.9209785-12.6665688-2.973341c0.421032-0.7371235,0.3508949-1.6755543-0.1841736-2.3424358l1.3245544-1.5697622c0.9577255-1.0843315,0.8517494-2.7408428-0.2368546-3.7018976c-1.0876999-0.9564199-2.7455864-0.842061-3.7016869,0.2368555l-1.368454,1.5611963c-0.8599052-0.494523-1.9271317-0.309598-2.5876465,0.4300251l-0.3859062,0.438591l-8.1402779-3.8860722c-0.8081665-0.3945789-1.5998611,0.544796-1.1140404,1.263092l4.9122009,7.5789738c-0.1798744,0.2656345-0.9748535,0.8147163-0.9034157,1.9385395c0.0350151,0.4124641,0.1753922,0.8069401,0.4210281,1.1230335l-6.0876999,6.938221l-6.0964813-6.938221c0.5877514-0.7722454,0.5702972-1.8687248-0.0875893-2.6229801l-0.3947964-0.4471588l4.9209805-7.5704079c0.4803734-0.7398624-0.3301735-1.6553831-1.1140404-1.263092l-8.1490574,3.8860722l-0.3859081-0.438591c-0.6931934-0.7762146-1.7658443-0.9026356-2.5876465-0.4300251l-1.368454-1.5611963c-0.9236755-1.0659113-2.5862694-1.2140274-3.6929045-0.2368555c-1.1333723,1.000576-1.1510611,2.6649361-0.2544165,3.6839085l1.3421135,1.5877514c-0.5645695,0.6925983-0.5904531,1.6351128-0.1841736,2.3424358c-2.4122515,1.0523624-8.5964298,3.4997349-12.6753483,2.973341c-0.41225-0.0526829-0.8070462,0.1931686-0.9385378,0.5966377c-0.1579399,0.456152-3.4911685,11.350687,14.7367058,20.8069515c0.7445564,0.3468132,1.4353466-0.3122139,1.2543106-1.0001068c-0.0263424-0.0963707-2.3333349-9.4648323,3.5789719-16.7457008c0.5575867,0.2956161,1.2432289,0.3262596,1.8419552,0.0265541l6.4737167,7.6487923c-0.864769,1.0024719,0.2442646-0.1887856-16.0173569,16.7367058c-1.0563431,1.094101-0.9508514,2.8077774,0.1402712,3.7721405l1.96488,1.7192421c1.1080875,0.9638176,2.8322639,0.8318558,3.7455864-0.3422203c1.4582424-1.8205147-5.2196503,6.5163765,13.9472198-17.4121552C55.1601181,65.090271,45.119709,52.5458755,47.9324074,56.0600357c0.9253693,1.1838226,2.6544037,1.3151703,3.7631454,0.3507843l1.9561005-1.7192421c1.0639877-0.9249496,1.222538-2.6709404,0.1490517-3.7631454C37.2150002,33.6651726,38.4450493,34.9563103,37.7745667,34.1917229l6.4737167-7.6577835c0.5834503,0.3014927,1.2896233,0.2645149,1.8507347-0.0265541c5.8947449,7.2633095,3.5965347,16.6493301,3.5701904,16.7457008C49.4801826,43.9713516,50.2394562,44.5946312,50.9235191,44.2531929z M42.5289345,46.4898376c-8.7949753-10.9596634-8.0226059-9.9509354-17.4032688-21.0523758l1.4911671-1.3072071c14.5120049,16.5375805,8.3977699,9.6791515,18.3944893,20.1927547L42.5289345,46.4898376z M25.4677792,46.4898376l-2.4823875-2.175396c8.026165-8.3578568,7.3553314-7.6227722,8.385807-8.7718239l1.4824963,1.7543678C21.603796,51.2991333,26.9841728,44.6024628,25.4677792,46.4898376z M16.1696682,40.665226C13.0292873,34.1917229,9.3012629,28.5864105,4.432858,24.6742115c4.7281327,0.0085659,10.7454834-2.5261822,12.6841297-3.4033661h0.0087795l3.5175095,4.0085697C16.1696682,30.6739998,15.8713493,37.0074463,16.1696682,40.665226z M16.2047901,13.57794c0.3406277-0.3031921,0.8962498-0.282177,1.2191887,0.0788097l1.3421154,1.5265026l-1.333334,1.1662922l-1.3069935-1.5436354C15.8091831,14.4536734,15.8310528,13.9145088,16.2047901,13.57794z M22.6257172,24.8849392c-0.0784245-0.0893135-5.2014103-5.9233112-5.122715-5.8336048c-0.1100922-0.1369457-0.1045933-0.3302631,0.0350151-0.4557228c0.9949741-0.8761177,2.4034061-2.1091557,3.3946915-2.9737682c0.1060982-0.1060972,0.3202114-0.1153526,0.4473705,0.0261269c10.014061,11.4072132-1.0172138-1.1603966,5.1140423,5.8331776c0.1227112,0.1314907,0.1051502,0.3336544-0.0263405,0.4475842c-1.0454464,0.9183617-3.5662441,3.132534-3.3947983,2.982336C22.9414902,25.0249977,22.7397556,25.0164318,22.6257172,24.8849392z M36.6079521,32.849823l-1.438591-1.6318665l6.2105179-7.0877018l1.4999466,1.315773L36.6079521,32.849823z M41.5289307,21.9287319c-0.1461563-0.1313438-0.1273308-0.3350677-0.0263405-0.4475842c0.0784378-0.089304,5.2016411-5.9227781,5.1228218-5.8331776c0.1104851-0.1262655,0.3103104-0.143609,0.4473724-0.0261269c3.1089859,2.727644,3.4345131,3.0085335,3.3946915,2.9737682c0.1315994,0.1224976,0.1403809,0.3242321,0.0262337,0.4557228c-7.7450142,8.8286877,0.0625572-0.0725899-5.1139336,5.8336048c-0.1163445,0.1161861-0.3064384,0.1461048-0.4560471,0.0261288C44.835762,24.8337879,41.253437,21.6868382,41.5289307,21.9287319z M51.8007011,13.57794c0.3441391,0.3262358,0.4037285,0.8473959,0.0702438,1.236536l-1.2982101,1.5350685l-1.3333359-1.1662922l1.3333359-1.5265026C50.8872757,13.3110981,51.4262047,13.262167,51.8007011,13.57794z M50.8797264,21.2708454c1.929863,0.8681889,7.9647751,3.411932,12.6929092,3.4033661c-4.8684044,3.912199-8.5964317,9.5175114-11.7455902,15.9910145c0.298317-3.6577797,0-9.9912262-4.4648285-15.3858109L50.8797264,21.2708454z"></path>
</svg>
