<svg xmlns="http://www.w3.org/2000/svg" viewBox="0 0 64 64" id="firewall">
  <path d="M33.09505,29.05h17.74a59.8105,59.8105,0,0,0-.9-19.35,2.56032,2.56032,0,0,0-3.07-1.91,28.06573,28.06573,0,0,1-18.38-2.07,2.41666,2.41666,0,0,0-2.22,0,30.71308,30.71308,0,0,1-5.87,2.07,28.18937,28.18937,0,0,1-12.53,0A2.55969,2.55969,0,0,0,4.805,9.7c-4.5,22.05,2.49,43.75,22.57,48.85a4.33322,4.33322,0,0,0,.48-.14,6.43951,6.43951,0,0,1-1.25995-3.83V35.55A6.51263,6.51263,0,0,1,33.09505,29.05Z"></path>
  <path d="M57.005 32.05H46.555V43.57h13.95V35.55A3.50386 3.50386 0 0057.005 32.05zM29.59505 35.55v8.02h13.96V32.05h-10.46A3.50381 3.50381 0 0029.59505 35.55zM29.59505 54.58a3.50377 3.50377 0 003.5 3.5h3.48V46.57h-6.98zM53.525 58.08h3.48a3.50381 3.50381 0 003.5-3.5V46.57h-6.98z"></path>
  <rect width="10.95" height="11.51" x="39.575" y="46.57"></rect>
</svg>
