<svg xmlns="http://www.w3.org/2000/svg" viewBox="0 0 64 64" id="magic-wand">
  <path fill="#8c421c" d="M35,23,3.626,58.3a1,1,0,0,0,.041,1.372l.666.666a1,1,0,0,0,1.372.041L41,29Z"></path>
  <path fill="#47a2de" d="M49,5a9.987,9.987,0,0,0-7.946,16.054l1.892,1.892A10,10,0,1,0,49,5Z"></path>
  <path fill="#f5f5f5" d="M44,32a2.828,2.828,0,0,0,4-4L37,17a2.828,2.828,0,0,0-4,4Z"></path>
  <path fill="#4caff0" d="M57.568,9.863l.753-1.506a2,2,0,0,0-2.678-2.678l-1.506.753"></path>
  <path fill="#63c1ff" d="M49,5A9.983,9.983,0,0,0,40.6,9.6a9.99,9.99,0,0,1,13.81,13.81A9.995,9.995,0,0,0,49,5Z"></path>
  <path fill="#7d3b19" d="M34.445,34.826,41,29l-5.492-5.492A14.35,14.35,0,0,1,36,30C35.653,31.387,35.065,33.134,34.445,34.826Z"></path>
  <path fill="#d4d4d4" d="M48,28,37,17a2.828,2.828,0,0,0-4,0,2.8,2.8,0,0,0-.488.683,2.817,2.817,0,0,1,3.316.489l11,11a2.817,2.817,0,0,1,.489,3.316A2.8,2.8,0,0,0,48,32,2.828,2.828,0,0,0,48,28Z"></path>
  <path d="M2.959,60.374l.667.667a2,2,0,0,0,2.743.08L35,35.672a24.7,24.7,0,0,0,11.919,4.243l.164-1.994A22.674,22.674,0,0,1,36.554,34.29l4.406-3.916,2.333,2.333a3.828,3.828,0,0,0,5.414-5.414l-1.444-1.444A10.983,10.983,0,0,0,58.7,9.829L59.216,8.8a3,3,0,0,0-4.02-4.02L54.171,5.3a10.951,10.951,0,0,0-16.02,11.44l-.444-.444a3.828,3.828,0,0,0-5.414,5.414l1.333,1.333-3.914,4.4A22.821,22.821,0,0,1,26,15H24a24.826,24.826,0,0,0,4.337,13.99L2.879,57.631A2,2,0,0,0,2.959,60.374ZM56.09,6.573A1,1,0,0,1,57.427,7.91l-.011.021a11.128,11.128,0,0,0-1.347-1.347ZM40,15a9,9,0,1,1,11,8.768V22.4a7.008,7.008,0,0,1-7-7A5.406,5.406,0,0,1,49.4,10a4.124,4.124,0,0,1,4.12,4.12,3.1,3.1,0,0,1-3.1,3.1,2.28,2.28,0,0,1-2.277-2.277,1.623,1.623,0,0,1,1.622-1.621v-2a3.625,3.625,0,0,0-3.622,3.621,4.282,4.282,0,0,0,4.277,4.277,5.1,5.1,0,0,0,5.1-5.1A6.128,6.128,0,0,0,49.4,8,7.409,7.409,0,0,0,42,15.4a9.011,9.011,0,0,0,6.236,8.561,8.932,8.932,0,0,1-4.649-1.788l-1.76-1.76A8.945,8.945,0,0,1,40,15Zm-6.293,2.707a1.83,1.83,0,0,1,2.586,0l4.032,4.032a11.085,11.085,0,0,0,1.936,1.936l5.032,5.032a1.829,1.829,0,0,1-2.586,2.586l-11-11A1.831,1.831,0,0,1,33.707,17.707Zm1.336,6.75,4.5,4.5L34.885,33.1A23.407,23.407,0,0,1,30.9,29.115Zm-5.488,6.174a25.416,25.416,0,0,0,3.808,3.819L5.041,59.626l-.667-.666Z"></path>
  <path d="M56.428 25.67A12.864 12.864 0 0 1 51.787 27.7l.426 1.954a14.862 14.862 0 0 0 5.359-2.344zM58.958 23.356l1.532 1.288a15.139 15.139 0 0 0 1.5-2.144l-1.732-1A12.981 12.981 0 0 1 58.958 23.356zM42.3 3.856L41.269 2.144a14.987 14.987 0 0 0-5.825 6.427l1.806.858A13.014 13.014 0 0 1 42.3 3.856zM34.038 13.93l2 .14a12.937 12.937 0 0 1 .266-1.857l-1.954-.426A14.907 14.907 0 0 0 34.038 13.93zM59.6 41.587A28.8 28.8 0 0 1 48 44a28.982 28.982 0 0 1-14.5-3.879l-1 1.731A31 31 0 0 0 48 46a30.781 30.781 0 0 0 12.4-2.58zM17.849 7.768a31.083 31.083 0 0 0 3.924 23.766l1.69-1.068A29.091 29.091 0 0 1 19.794 8.232zM27.671 6.375l-1.853-.75a24.917 24.917 0 0 0-1.275 4.167l1.957.416A22.839 22.839 0 0 1 27.671 6.375zM52.834 37.682l.332 1.972a24.791 24.791 0 0 0 6.251-1.922l-.834-1.817A22.859 22.859 0 0 1 52.834 37.682z"></path>
</svg>
