<svg xmlns="http://www.w3.org/2000/svg" id="odins-eye" viewBox="0 0 64 64">
  <path d="M5.068,31.5h-.01c-.276,0-.495.224-.495.5s.229.5.505.5.5-.224.5-.5-.224-.5-.5-.5Z"></path>
  <path d="M32,2.5C15.733,2.5,2.5,15.733,2.5,32s13.233,29.5,29.5,29.5,29.5-13.233,29.5-29.5S48.267,2.5,32,2.5ZM32,60.5c-15.715,0-28.5-12.785-28.5-28.5S16.285,3.5,32,3.5s28.5,12.785,28.5,28.5-12.785,28.5-28.5,28.5Z"></path>
  <path d="M32 6.774c-13.91 0-25.226 11.316-25.226 25.226s11.316 25.226 25.226 25.226 25.226-11.316 25.226-25.226S45.91 6.774 32 6.774ZM32 56.226c-13.358 0-24.226-10.868-24.226-24.226S18.642 7.774 32 7.774s24.226 10.868 24.226 24.226-10.868 24.226-24.226 24.226ZM32.02 5.548c.276 0 .5-.224.5-.5s-.224-.5-.5-.5h-.01c-.276 0-.495.224-.495.5s.229.5.505.5Z"></path>
  <path d="M51.078 13.442c.276 0 .5-.224.5-.5s-.224-.5-.5-.5h-.01c-.276 0-.495.224-.495.5s.229.5.505.5ZM58.972 32.5c.276 0 .5-.224.5-.5s-.224-.5-.5-.5h-.01c-.276 0-.495.224-.495.5s.229.5.505.5ZM51.078 50.558h-.01c-.276 0-.495.224-.495.5s.229.5.505.5.5-.224.5-.5-.224-.5-.5-.5ZM32.02 58.452h-.01c-.276 0-.495.224-.495.5s.229.5.505.5.5-.224.5-.5-.224-.5-.5-.5ZM12.962 50.558h-.01c-.276 0-.495.224-.495.5s.229.5.505.5.5-.224.5-.5-.224-.5-.5-.5ZM12.962 13.442c.276 0 .5-.224.5-.5s-.224-.5-.5-.5h-.01c-.276 0-.495.224-.495.5s.229.5.505.5ZM48.374 24.683c-.025.46-.184 1.623-1.115 2.491-.27.251-.578.456-.919.609-.402-.638-1.268-1.884-2.605-3.235.061-.806.103-1.624.111-2.439.017-1.201-.022-2.392-.113-3.539-.022-.275-.252-.479-.539-.458-.275.022-.48.263-.458.539.089 1.116.126 2.275.11 3.447-.005.517-.043 1.028-.07 1.543-1.155-1.024-2.583-2.036-4.281-2.848.077-.42.152-.837.19-1.25.084-.908.084-1.835 0-2.758-.025-.275-.257-.475-.543-.453-.275.025-.478.269-.453.543.079.862.079 1.728 0 2.576-.027.304-.089.614-.14.921-1.206-.489-2.535-.866-3.993-1.07.481-.492.78-1.163.78-1.904 0-1.298-2.038-5.968-2.271-6.497-.159-.363-.756-.363-.915 0-.232.528-2.271 5.198-2.271 6.497 0 .696.27 1.325.7 1.807-1.361.122-2.693.4-3.974.824-.026-.194-.058-.378-.079-.58-.079-.85-.079-1.715 0-2.574.025-.275-.177-.519-.452-.544-.272-.021-.519.178-.544.452-.084.919-.084 1.848 0 2.763.03.292.073.561.114.834-1.514.601-2.946 1.405-4.252 2.4-.007-.23-.021-.45-.024-.686-.016-1.17.021-2.329.11-3.445.022-.275-.184-.517-.458-.539-.279-.02-.516.183-.539.458-.091 1.147-.13 2.338-.113 3.539.007.503.027.987.052 1.465-1.167 1.025-2.214 2.211-3.106 3.54-.222-.238-.452-.568-.582-.997-.387-1.275.43-2.366.525-2.486.17-.217.133-.531-.084-.702-.217-.17-.532-.133-.702.084-.208.265-1.219 1.671-.696 3.395.3.99.975 1.596 1.35 1.868.112.082.253.114.389.086.136-.026.255-.108.329-.225 3.33-5.315 9.232-8.373 15.356-7.978 8.849.568 13.312 8.166 13.497 8.489.091.159.258.251.434.251.052 0 .104-.008.155-.024.629-.205 1.186-.531 1.657-.97 1.197-1.116 1.4-2.587 1.431-3.168.015-.276-.196-.512-.472-.526-.271-.032-.512.196-.526.472ZM31.606 19.126c-.953 0-1.728-.775-1.728-1.728 0-.682.929-3.121 1.728-5.027.799 1.906 1.728 4.345 1.728 5.027 0 .953-.775 1.728-1.728 1.728Z"></path>
  <path d="M31.623,25.181c-6.929-.25-11.237,4.367-12.033,5.292-.18.209-.157.525.053.705.208.179.523.156.705-.053.233-.27.785-.877,1.632-1.577,1.124,2.7,3.581,7.114,8.463,10.411-3.617,2.078-7.153,2.743-9.586,2.911-.275.02-.483.258-.464.534.019.264.238.465.499.465.012,0,.023,0,.035,0,1.781-.123,4.127-.497,6.672-1.456v9.332c0,.276.224.5.5.5s.5-.224.5-.5v-9.748c.756-.326,1.521-.7,2.294-1.141v12.042c0,.276.224.5.5.5s.5-.224.5-.5v-12.044c.681.39,1.358.733,2.027,1.032v9.86c0,.276.224.5.5.5s.5-.224.5-.5v-9.444c2.652,1.036,5.104,1.439,6.946,1.564.012,0,.023,0,.034,0,.261,0,.48-.202.499-.466.019-.275-.19-.514-.465-.533-2.431-.164-5.966-.826-9.59-2.909,4.534-3.058,6.995-7.028,8.308-10.045.796.706,1.311,1.308,1.526,1.574.099.123.243.187.39.187.11,0,.221-.036.313-.111.215-.173.249-.488.076-.703-1.029-1.277-4.888-5.462-11.331-5.679ZM31.682,39.204c-.096.064-.192.114-.288.176-.096-.062-.191-.111-.287-.175-4.897-3.265-7.271-7.712-8.304-10.286,1.939-1.398,4.918-2.873,8.787-2.739,3.652.123,6.441,1.66,8.257,3.071-1.237,2.941-3.627,6.929-8.165,9.952Z"></path>
  <path d="M31.606,34.361c1.308,0,2.373-1.064,2.373-2.373s-1.064-2.373-2.373-2.373-2.373,1.064-2.373,2.373,1.064,2.373,2.373,2.373ZM31.606,30.616c.757,0,1.373.616,1.373,1.373s-.616,1.373-1.373,1.373-1.373-.616-1.373-1.373.616-1.373,1.373-1.373Z"></path>
  <path d="M27.458 31.989c0 2.287 1.861 4.148 4.148 4.148s4.148-1.861 4.148-4.148-1.861-4.148-4.148-4.148-4.148 1.861-4.148 4.148ZM31.606 28.841c1.736 0 3.148 1.412 3.148 3.148s-1.412 3.148-3.148 3.148-3.148-1.412-3.148-3.148 1.412-3.148 3.148-3.148ZM54.388 33.785c.017.001.034.002.051.002.253 0 .471-.192.497-.449.092-.9.135-1.813.128-2.713-.002-.275-.226-.496-.5-.496h-.004c-.276.002-.498.228-.496.504.007.864-.035 1.74-.123 2.604-.028.274.172.52.447.548ZM44.147 50.027c-.226.159-.279.471-.12.697.097.138.252.211.409.211.1 0 .2-.03.288-.092 2.871-2.028 5.22-4.577 6.981-7.574 1.108-1.887 1.957-3.924 2.524-6.055.071-.267-.088-.541-.355-.612-.266-.069-.541.088-.612.355-.543 2.044-1.357 3.997-2.419 5.805-1.689 2.875-3.942 5.318-6.696 7.265Z"></path>
</svg>
