<svg xmlns="http://www.w3.org/2000/svg" viewBox="0 0 128 128" id="supernova">
  <path d="m17.624 22.881.931 1.7a.8.8 0 0 0 .32.32l1.7.93a.806.806 0 0 1 0 1.414l-1.7.93a.8.8 0 0 0-.32.32l-.931 1.7a.806.806 0 0 1-1.413 0l-.931-1.7a.808.808 0 0 0-.32-.32l-1.7-.93a.806.806 0 0 1 0-1.414l1.7-.93a.808.808 0 0 0 .32-.32l.931-1.7a.8.8 0 0 1 1.413 0zm86.456 72.832.892 1.632a.781.781 0 0 0 .307.307l1.632.892a.773.773 0 0 1 0 1.356l-1.632.892a.775.775 0 0 0-.307.307l-.892 1.631a.773.773 0 0 1-1.356 0l-.892-1.631a.769.769 0 0 0-.307-.307l-1.631-.892a.773.773 0 0 1 0-1.356l1.631-.892a.775.775 0 0 0 .307-.307l.892-1.632a.773.773 0 0 1 1.356 0zm-14.122 10.679L91.384 109a1.247 1.247 0 0 0 .491.491l2.608 1.426a1.234 1.234 0 0 1 0 2.166l-2.608 1.426a1.247 1.247 0 0 0-.491.491l-1.426 2.608a1.234 1.234 0 0 1-2.166 0L86.366 115a1.247 1.247 0 0 0-.491-.491l-2.608-1.426a1.234 1.234 0 0 1 0-2.166l2.608-1.426a1.247 1.247 0 0 0 .491-.491l1.426-2.608a1.234 1.234 0 0 1 2.166 0zm1.318-71.232L71.81 53.438a.651.651 0 0 1-1.085-.354L68.25 40.02a.651.651 0 0 0-1.286.042L65.155 54.8a.651.651 0 0 1-1.029.448l-10.769-7.81a.651.651 0 0 0-.92.894L60.174 59.7a.651.651 0 0 1-.391 1l-6.8 1.584a.651.651 0 0 0 .031 1.275l6.238 1.13a.651.651 0 0 1 .359 1.086L39.068 87.711a.651.651 0 0 0 .9.935l22.978-20.039a.651.651 0 0 1 1.077.434l1.132 13.038a.651.651 0 0 0 1.289.061l2.141-11.727a.651.651 0 0 1 1.1-.345l5.742 5.688a.651.651 0 0 0 1.082-.651l-2.6-8.621a.652.652 0 0 1 .829-.807l8.015 2.66a.651.651 0 0 0 .622-1.118l-6.467-5.4a.652.652 0 0 1 .175-1.1l6.217-2.49a.651.651 0 0 0-.208-1.255l-6.838-.347a.651.651 0 0 1-.465-1.07l16.433-19.5a.651.651 0 0 0-.946-.897z"></path>
  <path d="M5.412 126.653a1.5 1.5 0 0 1-1.012-2.606l53.686-49.1A2.484 2.484 0 0 1 61 74.618a2.65 2.65 0 0 1 1.274 2.1l2.776 30.4a1.5 1.5 0 1 1-2.987.274L59.4 78.245a.2.2 0 0 0-.334-.129L6.424 126.26a1.5 1.5 0 0 1-1.012.393zM2.25 124.25a1.68 1.68 0 0 1-1.576-1.969.208.208 0 0 1 .061-.142c6.5-6.342 39.714-43.114 48.3-52.63a.2.2 0 0 0-.122-.324L26.59 65.513a1.5 1.5 0 0 1 .487-2.961l23.583 3.881a2.572 2.572 0 0 1 1.859 3.667.206.206 0 0 1-.041.064c-5.807 6.443-41.221 45.7-49.167 53.645a1.5 1.5 0 0 1-1.061.441zM26.915 62.5a1.5 1.5 0 0 1-1.5-1.445 1.575 1.575 0 0 1 1.419-1.555L50.7 56.464a.2.2 0 0 0 .141-.311L27.424 21.507a1.5 1.5 0 1 1 2.485-1.68l24.053 35.59A2.491 2.491 0 0 1 54 58.163a2.634 2.634 0 0 1-1.917 1.15l-24.978 3.175a1.515 1.515 0 0 1-.19.012z"></path>
  <path d="M61.25 49.327a2.478 2.478 0 0 1-1.7-.682L30.972 21.76a1.5 1.5 0 0 1 2.056-2.186l27.493 25.87a.2.2 0 0 0 .337-.133L62.7 17.359a1.5 1.5 0 1 1 2.993.2L63.76 46.891a2.59 2.59 0 0 1-1.109 2.009 2.546 2.546 0 0 1-1.401.427zm12.98-2.58a2.5 2.5 0 0 1-2.462-2.073L67.062 17.5a1.5 1.5 0 0 1 2.956-.512l4.493 25.944a.2.2 0 0 0 .329.116l46.671-40.926a1.5 1.5 0 1 1 1.978 2.256l-47.61 41.749a2.5 2.5 0 0 1-1.649.62zm-6.754 61.09a1.6 1.6 0 0 1-.3-.029 1.5 1.5 0 0 1-1.194-1.644l3.067-28.351a2.6 2.6 0 0 1 1.7-2.227 2.481 2.481 0 0 1 2.851.951l10.163 14.719a1.5 1.5 0 0 1-2.47 1.7l-9.085-13.165a.2.2 0 0 0-.364.092L68.965 106.5a1.5 1.5 0 0 1-1.489 1.337zM85.657 92.48a1.5 1.5 0 0 1-1.433-1.059l-5.55-18.081a2.624 2.624 0 0 1 .631-2.683 2.5 2.5 0 0 1 2.956-.355l29.625 16.88a1.5 1.5 0 0 1-1.486 2.607L82.31 73.783a.2.2 0 0 0-.29.232l5.072 16.525a1.5 1.5 0 0 1-1.435 1.94zm28.137-5.147a1.494 1.494 0 0 1-.926-.32L83.935 64.281a2.634 2.634 0 0 1-1.047-2.336 2.49 2.49 0 0 1 1.852-2.132l23.99-6.279a1.5 1.5 0 1 1 .76 2.9l-22.627 5.925a.2.2 0 0 0-.073.351l27.873 21.9a1.553 1.553 0 0 1 .465 1.916 1.5 1.5 0 0 1-1.334.807zM84.328 53.671a2.5 2.5 0 0 1-1.835-4.2L124.9 3.565a1.5 1.5 0 0 1 2.2 2.035L85.83 50.282a.2.2 0 0 0 .154.336l22.326-.712a1.5 1.5 0 0 1 .1 3l-24 .765z"></path>
  <path d="M112.546 31.423a1.5 1.5 0 0 1-1.034-2.587l1.249-1.189a1.5 1.5 0 0 1 2.068 2.174l-1.249 1.189a1.5 1.5 0 0 1-1.034.413zM101.8 41.655a1.5 1.5 0 0 1-1.034-2.586l8.255-7.86a1.5 1.5 0 1 1 2.068 2.172l-8.255 7.86a1.493 1.493 0 0 1-1.034.414zm-22.473-6.924a1.5 1.5 0 0 1-1.09-2.53l12.651-13.385a1.5 1.5 0 0 1 2.181 2.061L80.418 34.262a1.5 1.5 0 0 1-1.091.469zm-43.959 76.005a1.5 1.5 0 0 1-1.09-2.53L55 86.278a1.5 1.5 0 0 1 2.181 2.061l-20.722 21.928a1.5 1.5 0 0 1-1.091.469zm-19.377-10.022a1.5 1.5 0 0 1-1.09-2.53l15.233-16.118a1.5 1.5 0 0 1 2.181 2.061l-15.233 16.117a1.5 1.5 0 0 1-1.091.47zm-5.491 5.809a1.5 1.5 0 0 1-1.09-2.53l1.792-1.9a1.5 1.5 0 0 1 2.18 2.06l-1.792 1.9a1.5 1.5 0 0 1-1.09.47zm68.868-93.692c-.781-.117-1.745-.889-1.629-1.671S77.741 9.132 79.3 9c.787-.065 2.487.689 2.126 2.246a1.753 1.753 0 0 1-2.058 1.585zM21.555 47.275c-.781-.117-1.744-.889-1.628-1.67s0-2.027 1.561-2.157c.786-.066 2.486.688 2.124 2.244a1.752 1.752 0 0 1-2.057 1.583zM55.8 112.841c-.966-.144-2.158-1.1-2.014-2.065s0-2.507 1.93-2.668c.973-.082 3.075.851 2.627 2.775a2.166 2.166 0 0 1-2.543 1.958z"></path>
</svg>
