<svg xmlns="http://www.w3.org/2000/svg" viewBox="0 0 128 128" id="war">
  <polygon fill="#e1ebf4" points="124.25 123.95 98.65 109.96 68.51 79.82 69.66 78.68 80.01 68.33 110 98.12 124.25 123.95"></polygon>
  <polygon fill="#e1ebf4" points="59.6 48.06 49.32 58.34 48.18 59.49 41.06 52.38 53 41.5 59.6 48.06"></polygon>
  <path fill="#2d4356" d="M111.59668,97.015a1.98762,1.98762,0,0,0-.31836-.415L81.50586,66.82684,78.67773,69.655l29.58594,29.58656,12.28418,21.30611L99.24219,108.26326,69.65625,78.6767l-2.82812,2.82818L96.60059,111.278a1.98759,1.98759,0,0,0,.415.31837L125.001,127.73242a1.99987,1.99987,0,0,0,2.73145-2.7315Z"></path>
  <path fill="#2d4356" d="M127.98,6.65A7.19281,7.19281,0,0,0,125.86,2.14,7.14172,7.14172,0,0,0,121.35.02a5.86561,5.86561,0,0,0-4.61,1.64,5.71412,5.71412,0,0,0-1.65,3.91l-2.44,2.44a10.89335,10.89335,0,0,0-13.09,1.8,7.87778,7.87778,0,0,0-1.19,9.71l-.6,1.1A26.655,26.655,0,0,1,87.53,30.86l-.94.51a10.29944,10.29944,0,0,0-14.19.33l-1.89,1.89a4.09223,4.09223,0,0,0,0,5.76l1.73,1.73L16.72,96.6a2.147,2.147,0,0,0-.31995.41L.27,125a1.99686,1.99686,0,0,0,.32,2.41A1.959,1.959,0,0,0,2,128a2.00312,2.00312,0,0,0,1-.27L30.98,111.6a1.93863,1.93863,0,0,0,.42-.32L86.92,55.76l1.73,1.72a4.05591,4.05591,0,0,0,5.75995,0l1.89-1.89a10.29658,10.29658,0,0,0,.33-14.18l.51-.94a26.65454,26.65454,0,0,1,10.24-10.24l1.1-.6a7.73723,7.73723,0,0,0,4.06,1.16,7.95318,7.95318,0,0,0,5.65-2.36,10.877,10.877,0,0,0,1.8-13.08l2.44-2.44a5.67006,5.67006,0,0,0,5.55-6.26ZM28.76,108.26,7.45,120.55,19.74,99.24,75.07,43.91l9.02,9.02ZM93.47,52.77l-1.89,1.89a.076.076,0,0,1-.1,0l-3.15-3.15L76.49,39.66l-3.15-3.14a.06674.06674,0,0,1,0-.1l1.89-1.89a6.30123,6.30123,0,0,1,8.9,0l.72.72,7.9,7.9.72.72A6.30712,6.30712,0,0,1,93.47,52.77Zm.22-14.33-4.13-4.13a30.69778,30.69778,0,0,0,11.65-11.66l4.14,4.13A30.79384,30.79384,0,0,0,93.69,38.44ZM123.51,8.43a1.921,1.921,0,0,1-1.62.46,2.03161,2.03161,0,0,0-1.67.56995l-4.25,4.25a2.00446,2.00446,0,0,0-.1,2.72,6.80317,6.80317,0,0,1-.51,9.18,3.8353,3.8353,0,0,1-5.41.12l-7.68-7.68a3.8353,3.8353,0,0,1,.12-5.41A6.955,6.955,0,0,1,107.32,10.58a6.48067,6.48067,0,0,1,4.25,1.55,1.99171,1.99171,0,0,0,2.71-.1L118.54,7.78a2.00965,2.00965,0,0,0,.57-1.68,1.90137,1.90137,0,0,1,.46-1.61A1.8796,1.8796,0,0,1,121.05,4a3.2664,3.2664,0,0,1,1.98.97,3.19824,3.19824,0,0,1,.96,1.98A1.86631,1.86631,0,0,1,123.51,8.43Z"></path>
  <path fill="#d68751" d="M123.51,8.43a1.921,1.921,0,0,1-1.62.46,2.03161,2.03161,0,0,0-1.67.56995l-4.25,4.25a2.00446,2.00446,0,0,0-.1,2.72,6.80317,6.80317,0,0,1-.51,9.18,3.8353,3.8353,0,0,1-5.41.12l-7.68-7.68a3.8353,3.8353,0,0,1,.12-5.41A6.955,6.955,0,0,1,107.32,10.58a6.48067,6.48067,0,0,1,4.25,1.55,1.99171,1.99171,0,0,0,2.71-.1L118.54,7.78a2.00965,2.00965,0,0,0,.57-1.68,1.90137,1.90137,0,0,1,.46-1.61A1.8796,1.8796,0,0,1,121.05,4a3.2664,3.2664,0,0,1,1.98.97,3.19824,3.19824,0,0,1,.96,1.98A1.86631,1.86631,0,0,1,123.51,8.43Z"></path>
  <path fill="#e1ebf4" d="M105.35,26.78A30.79384,30.79384,0,0,0,93.69,38.44l-4.13-4.13a30.69778,30.69778,0,0,0,11.65-11.66Z"></path>
  <path fill="#d68751" d="M93.47,52.77l-1.89,1.89a.076.076,0,0,1-.1,0l-3.15-3.15L76.49,39.66l-3.15-3.14a.06674.06674,0,0,1,0-.1l1.89-1.89a6.30123,6.30123,0,0,1,8.9,0l.72.72,7.9,7.9.72.72A6.30712,6.30712,0,0,1,93.47,52.77Z"></path>
  <polygon fill="#e1ebf4" points="84.09 52.93 28.76 108.26 7.45 120.55 19.74 99.24 75.07 43.91 84.09 52.93"></polygon>
  <path fill="#72492d" d="M123.51 8.43a1.921 1.921 0 0 1-1.62.46 2.03161 2.03161 0 0 0-1.67.56995l-4.25 4.25a1.70607 1.70607 0 0 0-.31.41 1.98822 1.98822 0 0 1 .31-2.41l4.25-4.25A2.03161 2.03161 0 0 1 121.89 6.89a1.921 1.921 0 0 0 1.62-.46 1.66945 1.66945 0 0 0 .26-.35 2.53642 2.53642 0 0 1 .22.87006A1.86631 1.86631 0 0 1 123.51 8.43zM115.35955 25.61234a3.83611 3.83611 0 0 1-5.41111.12l-7.68161-7.68161a3.70119 3.70119 0 0 1-.92024-3.60073 3.4669 3.4669 0 0 0 .92024 1.60031l7.68161 7.68161a3.83611 3.83611 0 0 0 5.41111-.12A6.94119 6.94119 0 0 0 117.33 19.6811 6.92447 6.92447 0 0 1 115.35955 25.61234z" opacity=".4"></path>
  <path fill="#9fa5aa" d="M105.35,26.78A30.79384,30.79384,0,0,0,93.69,38.44l-.67-.67.67-1.33a30.89687,30.89687,0,0,1,10.4-10.92Z" opacity=".5"></path>
  <path fill="#72492d" d="M93.47,52.77l-1.89,1.89a.076.076,0,0,1-.1,0l-3.15-3.15L76.49,39.66l-3.15-3.14a.06674.06674,0,0,1,0-.1l.95-.95,2.2,2.19L88.33,49.51l3.15,3.15a.076.076,0,0,0,.1,0l1.89-1.89a6.26576,6.26576,0,0,0,1.76-3.45A6.30937,6.30937,0,0,1,93.47,52.77Z" opacity=".4"></path>
  <polygon fill="#9fa5aa" points="84.09 52.93 28.76 108.26 7.45 120.55 9.18 117.55 28.76 106.26 83.09 51.93 84.09 52.93" opacity=".5"></polygon>
  <path fill="#2d4356" d="M55.76,41.08l1.73-1.73a4.09223,4.09223,0,0,0,0-5.76L55.6,31.7a10.29938,10.29938,0,0,0-14.19-.33l-.94-.51A26.655,26.655,0,0,1,30.23,20.62l-.6-1.1a7.87778,7.87778,0,0,0-1.19-9.71,10.89149,10.89149,0,0,0-13.09-1.8L12.91,5.57a5.71412,5.71412,0,0,0-1.65-3.91A5.86561,5.86561,0,0,0,6.65.02,7.14172,7.14172,0,0,0,2.14,2.14,7.19281,7.19281,0,0,0,.02,6.65a5.83061,5.83061,0,0,0,1.64,4.61,5.77889,5.77889,0,0,0,3.91,1.65l2.44,2.44a10.877,10.877,0,0,0,1.8,13.08,7.95318,7.95318,0,0,0,5.65,2.36,7.73723,7.73723,0,0,0,4.06-1.16l1.1.6A26.65454,26.65454,0,0,1,30.86,40.47l.51.94A10.30933,10.30933,0,0,0,31.7,55.6l1.89,1.88a4.05591,4.05591,0,0,0,5.75995,0l1.73-1.72,5.41,5.41,2.83-2.83-5.41-5.41,9.02-9.02,5.41,5.41,2.83-2.83ZM18.05,25.73a3.8353,3.8353,0,0,1-5.41-.12,6.80317,6.80317,0,0,1-.51-9.18,2.00446,2.00446,0,0,0-.1-2.72L7.78,9.46a1.99643,1.99643,0,0,0-1.42-.58,2.08869,2.08869,0,0,0-.25.01,1.921,1.921,0,0,1-1.62-.46,1.86631,1.86631,0,0,1-.48-1.48,3.19824,3.19824,0,0,1,.96-1.98A3.2664,3.2664,0,0,1,6.95,4a1.91775,1.91775,0,0,1,1.48.49A1.90137,1.90137,0,0,1,8.89,6.1a2.00965,2.00965,0,0,0,.57,1.68L13.72,12.03a1.99171,1.99171,0,0,0,2.71.1,6.79267,6.79267,0,0,1,9.18.51,3.8353,3.8353,0,0,1,.12,5.41Zm4.6,1.05,4.14-4.13A30.69778,30.69778,0,0,0,38.44,34.31l-4.13,4.13A30.79384,30.79384,0,0,0,22.65,26.78ZM54.66,36.52l-3.15,3.14L39.67,51.51l-3.15,3.15a.07692.07692,0,0,1-.1-.01l-1.89-1.88a6.30712,6.30712,0,0,1,0-8.9l.72-.72,7.9-7.9.72-.72a6.30719,6.30719,0,0,1,8.9,0l1.89,1.89A.06674.06674,0,0,1,54.66,36.52Z"></path>
  <path fill="#d68751" d="M54.66,36.42a.06674.06674,0,0,1,0,.1l-3.15,3.14L39.67,51.51l-3.15,3.15a.07692.07692,0,0,1-.1-.01l-1.89-1.88a6.30712,6.30712,0,0,1,0-8.9l.72-.72,7.9-7.9.72-.72a6.30719,6.30719,0,0,1,8.9,0Z"></path>
  <path fill="#e1ebf4" d="M38.44,34.31l-4.13,4.13A30.79384,30.79384,0,0,0,22.65,26.78l4.14-4.13A30.69778,30.69778,0,0,0,38.44,34.31Z"></path>
  <path fill="#d68751" d="M25.73,18.05l-7.68,7.68a3.8353,3.8353,0,0,1-5.41-.12,6.80317,6.80317,0,0,1-.51-9.18,2.00446,2.00446,0,0,0-.1-2.72L7.78,9.46a1.99643,1.99643,0,0,0-1.42-.58,2.08869,2.08869,0,0,0-.25.01,1.921,1.921,0,0,1-1.62-.46,1.86631,1.86631,0,0,1-.48-1.48,3.19824,3.19824,0,0,1,.96-1.98A3.2664,3.2664,0,0,1,6.95,4a1.91775,1.91775,0,0,1,1.48.49A1.90137,1.90137,0,0,1,8.89,6.1a2.00965,2.00965,0,0,0,.57,1.68L13.72,12.03a1.99171,1.99171,0,0,0,2.71.1,6.79267,6.79267,0,0,1,9.18.51A3.8353,3.8353,0,0,1,25.73,18.05Z"></path>
  <polygon fill="#9fa5aa" points="120.55 120.55 99.24 108.26 69.66 78.68 70.66 77.68 99.24 106.26 118.82 117.55 120.55 120.55" opacity=".5"></polygon>
  <path fill="#9fa5aa" d="M34.31,36.44l.65,1.35-.65.65A30.79384,30.79384,0,0,0,22.65,26.78L23.91,25.52A30.89687,30.89687,0,0,1,34.31,36.44Z" opacity=".5"></path>
  <path fill="#72492d" d="M12.34 14.12a1.70607 1.70607 0 0 0-.31-.41L7.78 9.46a1.99643 1.99643 0 0 0-1.42-.58 2.08869 2.08869 0 0 0-.25.01 1.921 1.921 0 0 1-1.62-.46 1.86631 1.86631 0 0 1-.48-1.48A2.53642 2.53642 0 0 1 4.23 6.08a1.66945 1.66945 0 0 0 .26.35 1.921 1.921 0 0 0 1.62.46 2.08869 2.08869 0 0 1 .25-.01 1.99643 1.99643 0 0 1 1.42.58l4.25 4.25A1.98822 1.98822 0 0 1 12.34 14.12zM54.66 36.42a.06674.06674 0 0 1 0 .1l-3.15 3.14L39.67 51.51l-3.15 3.15a.07692.07692 0 0 1-.1-.01l-1.89-1.88a6.30937 6.30937 0 0 1-1.76-5.45 6.26576 6.26576 0 0 0 1.76 3.45l1.89 1.88a.07692.07692 0 0 0 .1.01l3.15-3.15L51.51 37.66l2.2-2.19z" opacity=".4"></path>
  <rect width="1.414" height="7.651" x="46.408" y="51.31" fill="#9fa5aa" opacity=".5" transform="rotate(-45 47.115 55.135)"></rect>
  <path fill="#72492d" d="M25.73,18.05l-7.68,7.68a3.8353,3.8353,0,0,1-5.41-.12,6.923,6.923,0,0,1-1.97-5.93,6.93972,6.93972,0,0,0,1.97,3.93,3.8353,3.8353,0,0,0,5.41.12l7.68-7.68a3.46617,3.46617,0,0,0,.92-1.6A3.70041,3.70041,0,0,1,25.73,18.05Z" opacity=".4"></path>
</svg>
